<?xml version="1.0" encoding="utf-8"?>
<!-- Generator: Adobe Illustrator 21.1.0, SVG Export Plug-In . SVG Version: 6.00 Build 0)  -->
<svg version="1.1" id="Layer_1" xmlns="http://www.w3.org/2000/svg" xmlns:xlink="http://www.w3.org/1999/xlink" x="0px" y="0px"
	 viewBox="0 0 36 36" style="enable-background:new 0 0 36 36;" xml:space="preserve">
<style type="text/css">
	.st0{fill:#656668;}
</style>
<path class="st0" d="M18,1.4C8.8,1.4,1.4,8.8,1.4,18c0,9.2,7.4,16.6,16.6,16.6S34.6,27.2,34.6,18C34.6,8.8,27.2,1.4,18,1.4z
	 M22.4,17.9h-2.9c0,4.6,0,10.3,0,10.3h-4.3c0,0,0-5.6,0-10.3h-2v-3.6h2V12c0-1.7,0.8-4.3,4.3-4.3l3.2,0v3.5c0,0-1.9,0-2.3,0
	c-0.4,0-0.9,0.2-0.9,1v2.1h3.2L22.4,17.9z"/>
</svg>
